<?xml version="1.0" standalone="no"?>
<!DOCTYPE svg PUBLIC "-//W3C//DTD SVG 20010904//EN"
 "http://www.w3.org/TR/2001/REC-SVG-20010904/DTD/svg10.dtd">
<svg version="1.0" xmlns="http://www.w3.org/2000/svg"
 width="1520.000000pt" height="1520.000000pt" viewBox="0 0 1520.000000 1520.000000"
 preserveAspectRatio="xMidYMid meet">
<metadata>
Created by potrace 1.14, written by Peter Selinger 2001-2017
</metadata>
<g transform="translate(0.000000,1520.000000) scale(0.100000,-0.100000)"
fill="#000000" stroke="none">
<path d="M5560 11803 c-24 -38 -64 -99 -88 -138 -25 -38 -47 -72 -51 -75 -3
-3 -15 -21 -25 -40 -11 -19 -22 -37 -25 -40 -14 -12 -181 -271 -181 -280 0 -5
-4 -10 -9 -10 -5 0 -15 -12 -22 -27 -8 -16 -41 -69 -74 -118 -33 -50 -64 -98
-70 -107 -47 -75 -132 -203 -142 -213 -7 -8 -13 -18 -13 -22 0 -5 -8 -18 -17
-29 -10 -10 -24 -31 -32 -46 -8 -15 -23 -37 -34 -48 -10 -12 -20 -28 -21 -36
-1 -9 -7 -19 -12 -22 -12 -9 -64 -90 -63 -98 0 -4 -3 -10 -8 -13 -5 -3 -43
-58 -85 -121 -184 -280 -233 -356 -237 -365 -2 -5 -7 -12 -10 -15 -4 -3 -31
-43 -61 -90 -29 -47 -57 -86 -62 -88 -4 -2 -8 -10 -8 -17 0 -8 -6 -20 -13 -27
-6 -7 -41 -58 -77 -113 -36 -55 -68 -101 -72 -103 -5 -2 -8 -8 -8 -12 0 -5
-31 -56 -68 -112 -38 -57 -77 -118 -87 -135 -11 -18 -23 -33 -27 -33 -4 0 -8
-5 -8 -11 0 -5 -20 -39 -45 -75 -25 -35 -45 -68 -45 -74 0 -5 -4 -10 -10 -10
-5 0 -10 -4 -10 -9 0 -11 -102 -165 -112 -169 -5 -2 -8 -8 -8 -14 0 -6 -16
-33 -35 -59 -19 -27 -35 -51 -35 -54 0 -8 -64 -100 -72 -103 -5 -2 -8 -8 -8
-13 0 -5 -29 -52 -65 -104 -36 -53 -65 -99 -65 -103 0 -4 -9 -18 -20 -32 -29
-35 -189 -280 -184 -280 3 0 -4 -9 -14 -20 -10 -11 -25 -33 -33 -48 -8 -15
-18 -31 -22 -37 -5 -5 -53 -77 -107 -160 -54 -82 -103 -155 -109 -162 -6 -7
-11 -15 -11 -18 0 -4 -22 -39 -49 -78 -26 -40 -80 -121 -120 -182 -39 -60 -76
-117 -81 -125 -6 -8 -53 -80 -105 -160 -52 -80 -98 -149 -102 -155 -5 -5 -28
-41 -53 -80 -25 -38 -48 -71 -52 -73 -5 -2 -8 -8 -8 -13 0 -5 -31 -55 -68
-111 -38 -57 -77 -118 -87 -135 -11 -18 -23 -33 -27 -33 -4 0 -8 -6 -8 -13 0
-7 -9 -23 -20 -35 -11 -12 -20 -24 -20 -28 0 -4 -11 -22 -25 -40 -14 -18 -25
-37 -25 -43 0 -6 -4 -11 -9 -11 -5 0 -14 -13 -21 -30 -7 -16 -16 -30 -21 -30
-5 0 -9 -5 -9 -11 0 -6 -11 -25 -25 -43 -14 -18 -25 -38 -25 -44 0 -6 -3 -12
-7 -14 -5 -1 -33 -41 -63 -88 -30 -47 -59 -89 -63 -95 -20 -25 -137 -208 -137
-215 0 -4 -9 -15 -20 -25 -11 -10 -20 -21 -20 -25 0 -4 -29 -51 -65 -106 -36
-54 -71 -107 -78 -118 -6 -10 -24 -36 -39 -57 -16 -21 -28 -43 -28 -49 0 -5
-4 -10 -9 -10 -5 0 -14 -13 -21 -30 -7 -16 -16 -30 -21 -30 -5 0 -9 -4 -9 -10
0 -5 -44 -76 -98 -157 -54 -82 -135 -204 -180 -273 -45 -69 -86 -132 -92 -140
-58 -86 -172 -266 -171 -269 2 -2 -4 -8 -13 -13 -9 -5 -16 -13 -16 -18 0 -5
-49 -82 -108 -172 -59 -90 -122 -185 -139 -213 -17 -27 -38 -57 -46 -67 -9 -9
-13 -19 -10 -22 4 -3 2 -6 -3 -6 -5 0 -18 -16 -28 -35 -11 -19 -23 -35 -28
-35 -4 0 -8 -6 -8 -13 0 -8 -13 -33 -30 -55 -16 -23 -30 -46 -30 -52 0 -5 -4
-10 -8 -10 -5 0 -15 -12 -23 -28 -8 -15 -16 -29 -19 -32 -3 -3 -34 -50 -70
-105 -35 -55 -67 -102 -72 -103 -4 -2 -8 -7 -8 -12 0 -5 -22 -41 -49 -82 l-49
-73 501 -3 502 -2 18 22 c10 13 160 237 333 498 173 261 321 483 329 493 8 9
15 20 15 23 0 8 62 98 73 105 5 3 8 10 8 15 0 5 9 19 19 32 11 12 20 24 20 27
0 5 142 222 157 240 5 6 23 34 41 63 18 30 42 63 52 75 11 11 20 27 20 34 0 7
4 13 9 13 5 0 11 6 13 13 4 17 201 311 210 315 5 2 8 7 8 12 0 4 70 112 155
240 85 128 155 236 155 240 0 5 4 10 8 12 10 4 132 188 132 199 0 4 3 9 8 11
4 2 50 68 102 148 52 80 103 154 113 164 9 11 17 24 17 29 0 5 14 26 30 47 17
21 30 43 30 49 0 6 5 11 10 11 6 0 10 7 10 15 0 8 5 15 10 15 6 0 10 4 10 9 0
6 15 31 33 56 17 26 40 59 49 73 10 15 22 34 28 42 5 8 137 206 292 440 155
234 286 428 292 432 6 4 7 8 3 8 -5 0 5 18 22 39 17 21 31 41 31 45 0 5 60 97
70 106 3 3 21 30 40 60 19 30 38 60 43 65 5 6 31 46 60 90 28 44 55 85 60 90
4 6 91 136 192 290 102 154 189 285 195 292 6 7 15 24 22 38 6 14 14 25 17 25
4 0 15 16 25 35 11 19 23 35 28 35 4 0 8 4 8 10 0 8 97 161 118 186 5 5 15 21
22 35 7 13 16 26 19 29 3 3 49 70 101 150 52 80 98 147 103 148 4 2 7 7 7 12
0 7 86 139 108 165 5 6 11 15 13 20 9 23 323 490 331 493 4 2 8 8 8 14 0 6 25
46 55 89 30 43 55 83 55 89 0 5 3 10 8 10 4 0 12 9 17 19 12 23 169 260 185
278 5 7 10 16 10 20 0 5 11 20 25 35 14 15 25 30 25 33 0 3 23 39 50 80 28 41
50 78 50 84 0 5 4 11 8 13 12 4 172 245 172 258 0 5 3 10 8 10 4 0 15 14 24
31 19 32 15 47 -17 87 -41 51 -85 113 -85 121 0 5 -4 11 -8 13 -7 3 -183 246
-207 286 -5 9 -13 19 -16 22 -4 3 -17 21 -30 40 -14 19 -51 72 -84 118 -33 46
-64 92 -70 103 -16 31 -29 23 -75 -48z"/>
<path d="M6497 10626 c-8 -21 -201 -311 -209 -314 -5 -2 -8 -8 -8 -13 0 -10
-138 -220 -151 -229 -3 -3 -9 -15 -13 -27 -4 -13 -12 -23 -17 -23 -5 0 -9 -4
-9 -9 0 -12 -241 -375 -251 -379 -5 -2 -9 -8 -9 -13 0 -5 -80 -130 -177 -277
-98 -147 -180 -271 -183 -277 -3 -5 -50 -77 -105 -160 -55 -82 -106 -162 -114
-177 -7 -16 -16 -28 -20 -28 -4 0 -17 -20 -31 -45 -14 -25 -28 -45 -32 -45 -5
0 -8 -6 -8 -13 0 -7 -8 -22 -18 -33 -9 -10 -41 -57 -71 -104 -29 -47 -57 -86
-62 -88 -5 -2 -9 -8 -9 -13 0 -8 -54 -95 -78 -124 -4 -5 -17 -26 -28 -45 -10
-19 -22 -37 -25 -40 -3 -3 -56 -81 -117 -175 -61 -93 -116 -177 -122 -185 -67
-97 -160 -242 -160 -250 0 -6 -3 -10 -8 -10 -4 0 -23 -26 -41 -57 -19 -32 -37
-60 -40 -63 -12 -10 -51 -69 -51 -77 0 -5 -10 -20 -22 -33 -13 -14 -24 -32
-26 -40 -2 -8 -7 -17 -11 -20 -11 -7 -67 -92 -74 -112 -4 -10 -11 -18 -17 -18
-5 0 -10 -5 -10 -11 0 -6 -20 -40 -45 -76 -25 -35 -45 -68 -45 -73 0 -4 -3
-10 -7 -12 -12 -5 -53 -66 -53 -78 0 -5 -4 -10 -10 -10 -5 0 -10 -4 -10 -8 0
-5 -61 -100 -135 -212 -74 -112 -135 -204 -135 -205 0 -2 -168 -258 -177 -270
-5 -5 -42 -62 -83 -125 -41 -63 -78 -116 -82 -118 -5 -2 -8 -8 -8 -13 0 -10
-61 -101 -75 -111 -5 -4 -7 -8 -3 -8 4 0 1 -8 -6 -17 -27 -33 -126 -186 -126
-195 0 -4 -5 -8 -12 -8 -6 0 -9 -3 -6 -6 4 -3 0 -13 -9 -22 -8 -9 -43 -62 -79
-117 -35 -55 -68 -105 -74 -112 -5 -7 -15 -24 -22 -38 -6 -14 -14 -25 -17 -25
-4 0 -15 -16 -25 -35 -11 -19 -23 -35 -28 -35 -4 0 -8 -4 -8 -10 0 -9 -72
-119 -422 -649 -48 -74 -88 -137 -88 -142 0 -4 -3 -9 -7 -11 -5 -1 -33 -41
-63 -88 -30 -47 -58 -86 -62 -88 -5 -2 -8 -10 -8 -18 0 -8 -4 -14 -10 -14 -5
0 -10 -5 -10 -10 0 -12 -41 -73 -52 -78 -5 -2 -8 -10 -8 -18 0 -8 -5 -14 -11
-14 -5 0 -7 -5 -4 -10 3 -6 2 -10 -3 -10 -5 0 -15 -12 -23 -28 -8 -15 -17 -29
-20 -32 -6 -5 -100 -148 -109 -165 -3 -5 -28 -44 -56 -85 -28 -41 -53 -83 -57
-92 -3 -10 -11 -18 -17 -18 -6 0 -8 -5 -5 -10 3 -6 2 -10 -2 -10 -5 0 -17 -16
-27 -35 -11 -19 -22 -35 -26 -35 -4 0 -10 -8 -14 -18 -5 -17 -26 -52 -36 -62
-9 -9 -60 -89 -60 -95 0 -3 2169 -5 4820 -5 2651 0 4820 2 4820 5 0 2 -77 120
-170 262 -94 142 -175 265 -180 273 -6 8 -71 107 -146 220 -75 113 -138 211
-142 219 -3 8 -14 23 -24 33 -10 10 -18 24 -18 32 0 8 -7 16 -15 20 -8 3 -15
10 -15 15 0 6 -20 39 -45 74 -25 36 -45 69 -45 75 0 6 -3 12 -8 14 -7 3 -123
174 -131 193 -2 6 -17 26 -32 46 -16 20 -29 41 -29 46 0 5 -13 24 -30 43 -16
19 -29 38 -30 42 0 4 -68 110 -151 235 -224 337 -238 358 -236 359 1 1 47 4
102 7 55 3 114 8 130 11 54 11 145 40 145 46 0 3 9 6 20 7 11 1 27 9 35 17 8
8 24 18 35 21 11 3 20 11 20 16 0 5 6 9 13 9 24 0 123 117 159 186 52 103 72
192 72 319 0 175 -41 310 -127 425 -48 65 -49 65 -107 110 -25 19 -47 37 -50
40 -5 5 -85 41 -135 60 -73 29 -135 33 -532 36 -304 1 -413 -1 -414 -10 -1 -6
-2 -78 -4 -161 -3 -178 -2 -175 -17 -150 -11 20 -142 218 -496 755 -97 146
-213 324 -260 395 -47 72 -89 132 -93 133 -5 2 -9 8 -9 13 0 10 -153 244 -177
272 -9 9 -12 17 -8 17 4 0 1 8 -7 18 -22 24 -188 274 -188 283 0 3 -7 12 -15
19 -9 7 -23 28 -31 46 -9 19 -20 34 -25 34 -5 0 -9 7 -9 15 0 8 -5 15 -12 15
-6 0 -9 3 -5 6 3 3 -1 13 -8 22 -24 29 -105 154 -105 162 0 4 -9 15 -20 25
-11 10 -20 24 -20 32 0 7 -7 16 -15 19 -8 4 -15 11 -15 17 0 6 -18 37 -40 68
-22 32 -40 62 -40 68 0 6 -4 11 -8 11 -5 0 -15 12 -23 28 -8 15 -16 29 -19 32
-15 15 -50 71 -50 80 0 5 -4 10 -8 10 -5 0 -14 10 -21 23 -29 54 -173 271
-183 275 -5 2 -8 8 -8 13 0 11 -81 133 -92 137 -5 2 -8 8 -8 13 0 5 -58 97
-130 205 -71 108 -130 200 -130 205 0 5 -4 9 -8 9 -5 0 -15 12 -23 28 -8 15
-16 29 -19 32 -15 15 -50 71 -50 80 0 5 -3 10 -8 10 -4 0 -18 20 -31 45 -13
25 -28 45 -32 45 -5 0 -9 4 -9 9 0 12 -61 105 -72 109 -4 2 -8 8 -8 12 0 10
-178 280 -184 280 -2 0 -6 -6 -9 -14z m-1203 -3770 c36 -5 91 -20 126 -33 8
-4 18 -7 22 -7 3 -1 10 -5 14 -9 5 -4 26 -16 49 -26 22 -11 54 -29 70 -42 39
-31 155 -151 155 -160 0 -4 6 -14 13 -21 6 -7 21 -31 32 -53 11 -22 25 -43 30
-47 6 -4 6 -8 1 -8 -5 0 -4 -6 1 -12 11 -14 47 -115 59 -163 4 -16 8 -34 10
-40 8 -27 13 -56 19 -110 4 -33 9 -73 11 -90 5 -41 4 -389 -2 -445 -5 -54 -12
-105 -14 -105 -1 0 -3 -9 -5 -20 -27 -189 -129 -395 -248 -500 -60 -54 -86
-75 -92 -75 -3 0 -24 -12 -48 -27 -23 -14 -44 -26 -47 -26 -3 0 -16 -4 -30 -9
-14 -5 -34 -12 -45 -14 -11 -2 -31 -7 -45 -10 -53 -14 -257 -12 -316 2 -32 8
-70 16 -83 19 -28 5 -148 63 -175 85 -105 83 -184 185 -228 300 -32 81 -40
114 -54 233 l-6 47 53 0 c206 2 351 1 355 -2 2 -3 6 -22 9 -44 3 -21 7 -48 9
-59 16 -75 26 -109 33 -114 4 -3 9 -13 11 -21 5 -27 92 -99 135 -111 66 -18
167 -14 218 8 63 28 134 105 145 158 1 6 10 33 20 60 9 28 18 64 20 80 1 17 3
30 4 30 3 0 11 78 13 129 l2 51 -165 2 c-91 1 -204 2 -252 2 l-87 1 2 167 2
168 245 1 c135 1 248 2 252 3 6 1 3 60 -7 136 -36 272 -142 398 -325 390 -66
-2 -78 -5 -137 -31 -28 -13 -97 -84 -99 -103 0 -3 -8 -31 -17 -61 -15 -48 -25
-108 -26 -161 -1 -14 -25 -16 -208 -15 -131 1 -207 5 -207 11 1 6 5 33 9 60
10 80 36 176 64 235 14 30 24 58 23 63 -1 4 2 7 8 7 6 0 10 4 10 10 0 14 46
79 88 125 62 68 144 121 247 161 30 11 66 20 125 29 19 3 35 7 36 8 5 4 181
-1 218 -7z m1706 -29 c213 -38 352 -126 423 -269 35 -70 42 -91 53 -168 7 -48
7 -156 0 -205 -9 -55 -45 -144 -73 -180 -43 -54 -73 -85 -82 -85 -5 0 -11 -3
-13 -8 -1 -4 -18 -17 -37 -29 l-35 -21 49 -23 c190 -89 278 -358 206 -627 -46
-170 -159 -291 -323 -346 -115 -39 -168 -45 -388 -45 -58 0 -114 -1 -125 -1
-11 0 -65 0 -120 0 -233 0 -308 -1 -314 -2 -3 0 -11 0 -18 1 -9 1 -11 243 -11
1003 0 552 1 1006 4 1009 4 7 763 3 804 -4z m2010 -115 c44 -68 80 -127 80
-133 0 -5 5 -9 10 -9 6 0 10 -7 10 -15 0 -8 4 -15 9 -15 5 0 11 -9 14 -20 5
-19 1 -21 -63 -19 -37 1 -72 -1 -78 -5 -6 -3 -13 -2 -16 2 -4 7 -39 8 -56 2
-3 -1 -9 -1 -15 0 -13 3 -136 2 -150 0 -5 -1 -13 -2 -17 -1 -5 1 -35 2 -68 2
-33 0 -63 -1 -67 -2 -5 -1 -12 0 -18 1 -22 5 -145 1 -154 -4 -5 -4 -12 -3 -14
1 -3 5 -45 7 -94 5 l-88 -3 0 -237 0 -237 85 -2 c47 -2 193 -4 325 -5 l240 -3
0 -150 c0 -82 -1 -155 -3 -161 -2 -7 -106 -10 -322 -10 -176 1 -321 -1 -321
-4 -1 -3 -2 -123 -3 -267 -1 -168 3 -264 9 -266 5 -2 178 -3 383 -3 241 1 372
-3 373 -9 1 -5 2 -81 3 -167 1 -134 -1 -158 -14 -159 -15 -1 -157 1 -175 2 -8
1 -138 0 -240 -1 -47 0 -231 1 -240 1 -8 1 -98 1 -240 -1 -50 0 -223 0 -248 1
l-27 0 0 894 c0 492 0 897 -1 902 -1 4 -1 13 0 18 1 6 2 53 1 106 l-1 96 556
-1 556 -1 79 -123z m730 -214 c0 5 12 8 28 5 26 -3 48 -4 122 -2 19 1 37 0 40
-1 3 0 25 -2 50 -4 128 -7 213 -137 214 -326 1 -151 -43 -238 -142 -282 -35
-16 -70 -19 -213 -21 -94 -1 -173 1 -175 5 -3 4 -4 76 -4 160 1 84 1 161 1
171 -1 52 0 149 1 160 0 6 -1 17 -2 22 -1 6 -2 34 -1 64 1 42 4 52 16 48 8 -4
17 -2 20 3 4 7 13 6 26 0 10 -6 19 -7 19 -2z m-293 -338 c4 -8 11 -19 16 -25
5 -5 96 -143 202 -305 l194 -295 -99 -3 -100 -3 0 -47 c-1 -26 -1 -185 -1
-354 l0 -308 -42 -1 c-23 -1 -46 0 -52 1 -5 1 -17 1 -25 1 -87 -3 -232 -2
-237 2 -3 3 -16 2 -29 -3 -19 -8 -24 -6 -25 8 -3 51 -4 1609 -1 1619 3 11 180
-244 199 -287z"/>
<path d="M6634 6501 c-10 -2 -21 -7 -24 -11 -4 -6 -5 -466 -1 -492 2 -14 295
-1 331 14 91 40 125 104 124 233 -1 97 -4 118 -27 162 -21 39 -54 64 -104 79
-39 12 -150 20 -178 14 -5 -1 -12 -2 -15 -1 -11 4 -88 6 -106 2z"/>
<path d="M6645 5701 c-3 -6 -12 -8 -19 -5 -7 3 -15 -1 -18 -8 -3 -11 -3 -511
1 -529 1 -3 74 -5 164 -4 124 1 170 5 197 17 41 19 90 60 90 77 0 6 5 11 10
11 6 0 9 3 8 8 -1 4 4 27 11 51 33 116 1 279 -67 338 -37 34 -76 41 -221 41
-72 0 -135 3 -140 6 -5 4 -12 2 -16 -3z"/>
<path d="M12888 6865 c-2 -1 -25 -5 -53 -8 -184 -19 -351 -113 -457 -257 -51
-68 -127 -242 -120 -272 1 -5 -3 -8 -9 -8 -5 0 -8 -3 -5 -8 2 -4 0 -30 -5 -57
-18 -95 -22 -171 -22 -420 0 -240 6 -382 19 -435 3 -14 7 -38 10 -53 2 -15 8
-36 14 -47 5 -10 10 -25 10 -34 0 -8 9 -35 20 -60 11 -26 20 -48 20 -51 2 -32
178 -244 202 -245 4 0 23 -11 43 -25 38 -25 131 -63 175 -72 14 -2 43 -8 65
-13 72 -16 302 -4 385 20 105 30 201 83 268 149 58 56 126 154 115 165 -4 3
-2 6 4 6 10 0 28 46 25 63 -1 4 2 7 6 7 5 0 9 6 9 13 1 6 9 46 18 87 9 41 18
99 20 128 l4 52 -203 0 c-154 0 -205 -3 -208 -12 -3 -7 -6 -38 -7 -68 -2 -30
-5 -59 -9 -64 -3 -6 -7 -21 -8 -35 -5 -42 -49 -115 -84 -139 -47 -31 -99 -43
-194 -44 -64 0 -93 5 -134 22 -58 25 -116 89 -126 140 -1 3 -5 11 -9 18 -5 6
-6 12 -2 12 3 0 1 8 -4 18 -8 15 -16 62 -27 157 -5 46 -4 592 2 655 2 30 5 62
5 70 1 8 6 33 11 55 6 22 11 45 13 50 7 32 39 89 67 120 54 62 99 79 213 79
90 1 106 -2 158 -27 48 -24 76 -50 83 -77 0 -3 8 -21 16 -40 17 -37 26 -85 32
-162 2 -26 7 -51 10 -56 3 -5 93 -9 206 -9 l200 0 -4 56 c-2 31 -9 79 -16 106
-6 28 -13 59 -16 70 -2 11 -16 49 -30 85 -84 200 -224 322 -434 375 -46 12
-254 27 -262 20z"/>
<path d="M10829 6800 c0 -47 0 -1883 0 -1940 l1 -45 585 1 c322 0 587 3 590 5
7 8 8 319 1 326 -3 3 -176 7 -383 7 l-378 1 0 268 -1 267 26 1 c14 0 159 1
323 1 l297 1 0 162 0 163 -316 0 c-174 0 -319 3 -322 7 -4 4 -7 112 -7 240
l-1 234 356 0 c195 0 367 0 382 1 l27 0 -1 168 -1 167 -588 1 -589 0 -1 -36z"/>
<path d="M13775 6830 c-2 -3 -3 -78 -3 -166 0 -111 4 -161 12 -162 6 -1 26 -3
44 -5 17 -2 32 1 32 6 0 4 5 5 11 2 16 -11 69 -12 69 -2 0 4 5 5 11 2 16 -11
69 -12 69 -2 0 4 5 5 11 2 16 -11 69 -12 69 -2 0 4 5 5 11 2 16 -11 69 -12 69
-2 0 4 5 5 11 1 7 -4 28 -7 48 -8 l36 -1 0 -830 c0 -456 3 -834 7 -840 4 -8
343 -12 399 -6 4 1 7 371 7 824 0 452 1 830 1 839 1 16 17 17 186 15 102 -1
185 2 185 6 0 5 5 5 11 2 16 -11 69 -12 69 -3 0 5 8 5 18 0 39 -20 42 -7 42
167 l0 167 -711 -1 c-391 0 -712 -2 -714 -5z"/>
</g>
</svg>
