<svg width="24" height="24" viewBox="0 0 24 24" fill="none" xmlns="http://www.w3.org/2000/svg">
<path d="M20.5532 15.5479C19.9576 16.1507 18.9918 16.1507 18.3961 15.5479L11.565 8.63511C10.9693 8.0323 10.9693 7.05494 11.565 6.45213C12.1607 5.84931 13.1265 5.84931 13.7222 6.45213L20.5532 13.3649C21.1489 13.9677 21.1489 14.9451 20.5532 15.5479Z" fill="#2A79CC"/>
<path d="M4.44676 15.5479C3.85108 14.9451 3.85108 13.9677 4.44676 13.3649L11.2778 6.45211C11.8735 5.8493 12.8393 5.8493 13.435 6.45211C14.0307 7.05492 14.0307 8.03228 13.435 8.63509L6.60393 15.5479C6.00825 16.1507 5.04245 16.1507 4.44676 15.5479Z" fill="#2A79CC"/>
</svg>
